# Blender 4.1.1
# www.blender.org
mtllib cavalier-g.mtl
o WhiteKnight.003
v -0.035463 0.003166 0.000016
v -0.033848 -0.002157 0.000016
v -0.027963 0.003166 -0.020591
v -0.026726 -0.002157 -0.019552
v -0.008972 0.003166 -0.031555
v -0.008691 -0.002157 -0.029965
v 0.012624 0.003166 -0.027747
v 0.011816 -0.002157 -0.026349
v 0.026719 0.003166 -0.010949
v 0.025202 -0.002157 -0.010396
v 0.026719 0.003166 0.010980
v 0.025202 -0.002157 0.010428
v 0.012624 0.003166 0.027779
v 0.011816 -0.002157 0.026380
v -0.008972 0.003166 0.031587
v -0.008691 -0.002157 0.029996
v -0.027963 0.003166 0.020622
v -0.026726 -0.002157 0.019584
v -0.030279 0.010565 0.000016
v -0.023991 0.010565 -0.017258
v -0.008072 0.010565 -0.026449
v 0.010032 0.010565 -0.023257
v 0.021848 0.010565 -0.009175
v 0.021848 0.010565 0.009207
v 0.010032 0.010565 0.023289
v -0.008072 0.010565 0.026481
v -0.023991 0.010565 0.017290
v -0.031551 0.014214 0.000016
v -0.024966 0.014214 -0.018076
v -0.008292 0.014214 -0.027702
v 0.010668 0.014214 -0.024359
v 0.023043 0.014214 -0.009611
v 0.023043 0.014214 0.009642
v 0.010668 0.014214 0.024391
v -0.008292 0.014214 0.027734
v -0.024966 0.014214 0.018107
v -0.027490 0.017305 0.000016
v -0.021855 0.017305 -0.015466
v -0.007587 0.017305 -0.023703
v 0.008637 0.017305 -0.020842
v 0.019227 0.017305 -0.008222
v 0.019227 0.017305 0.008253
v 0.008637 0.017305 0.020874
v -0.007587 0.017305 0.023735
v -0.021855 0.017305 0.015497
v -0.018438 0.017305 0.000016
v -0.014921 0.017305 -0.009647
v -0.006015 0.017305 -0.014788
v 0.004111 0.017305 -0.013003
v 0.010721 0.017305 -0.005126
v 0.010721 0.017305 0.005157
v 0.004111 0.017305 0.013034
v -0.006015 0.017305 0.014820
v -0.014921 0.017305 0.009678
v -0.018438 0.021853 0.000016
v -0.014921 0.021853 -0.007513
v -0.006015 0.021853 -0.011519
v 0.004111 0.021853 -0.010128
v 0.010721 0.021853 -0.003990
v 0.010721 0.021853 0.004022
v 0.004111 0.021853 0.010159
v -0.006015 0.021853 0.011550
v -0.014921 0.021853 0.007545
v 0.012126 0.024964 0.014025
v 0.015615 0.026391 0.013558
v 0.016408 0.029721 0.013558
v 0.011559 0.043385 0.010331
v 0.007330 0.051182 0.010331
v 0.002917 0.058767 0.010331
v 0.000538 0.065268 0.011127
v -0.000070 0.072375 0.012117
v 0.006259 0.070182 0.009538
v 0.010699 0.069230 0.007294
v 0.015456 0.069865 0.006570
v 0.018786 0.069864 0.006570
v 0.022751 0.068755 0.006570
v 0.026803 0.069920 0.006570
v 0.028306 0.073156 0.006570
v 0.026814 0.076104 0.006570
v 0.021012 0.079275 0.006570
v 0.016484 0.084191 0.007294
v 0.012313 0.089883 0.012117
v 0.008796 0.092595 0.012117
v 0.003405 0.093230 0.012117
v -0.003097 0.091485 0.012117
v -0.008488 0.088472 0.012117
v -0.013087 0.081971 0.012117
v -0.017368 0.072298 0.012117
v -0.021966 0.057234 0.012913
v -0.026089 0.031941 0.016779
v -0.025772 0.026708 0.016779
v -0.022601 0.024646 0.016779
v 0.013375 0.046618 0.004508
v 0.008007 0.055843 0.004508
v 0.015531 0.093687 0.007728
v 0.011254 0.096986 0.007728
v 0.005115 0.063750 0.004508
v 0.004697 0.097757 0.007728
v 0.004375 0.069954 0.007728
v -0.003210 0.095636 0.006311
v 0.008168 0.067286 0.007728
v -0.009767 0.091971 0.006311
v 0.013568 0.066129 0.003652
v -0.015360 0.084064 0.006311
v 0.019354 0.066900 0.003652
v -0.020567 0.072300 0.006311
v 0.023404 0.066900 0.003652
v -0.026160 0.053979 0.006311
v 0.028225 0.065550 0.003652
v -0.031174 0.028715 0.010973
v 0.033153 0.069407 0.003652
v -0.030789 0.022351 0.014675
v 0.034982 0.073344 0.003652
v 0.015304 0.020229 0.012390
v 0.019546 0.021965 0.009169
v -0.026932 0.019844 0.012390
v 0.033167 0.076929 0.003652
v 0.020511 0.026015 0.009169
v 0.026110 0.080786 0.003652
v 0.018518 0.037136 0.004508
v 0.020604 0.086764 0.003652
v 0.004697 0.097757 0.003274
v -0.003210 0.095636 0.003274
v -0.009767 0.091971 0.003274
v -0.015360 0.084064 0.003274
v -0.020567 0.072300 0.003274
v -0.026160 0.053979 0.003274
v -0.031174 0.028715 0.003274
v -0.030789 0.022351 0.003274
v 0.002614 0.103795 0.001277
v -0.008990 0.099102 0.001277
v -0.015547 0.095438 0.001277
v -0.021139 0.087531 0.001277
v -0.026347 0.075767 0.001277
v -0.031939 0.057446 0.001277
v -0.036954 0.032182 0.001277
v -0.036568 0.025817 0.001277
v 0.013880 0.045758 -0.000005
v 0.008235 0.055458 -0.000005
v 0.016147 0.095252 -0.000005
v 0.011649 0.098721 -0.000005
v 0.005193 0.063773 -0.000005
v 0.004754 0.099532 -0.000005
v 0.004416 0.070296 -0.000005
v 0.008404 0.067491 -0.000005
v 0.014083 0.066274 -0.000005
v 0.020166 0.067085 -0.000005
v 0.024425 0.067085 -0.000005
v 0.029495 0.065666 -0.000005
v 0.034677 0.069722 -0.000005
v 0.036600 0.073861 -0.000005
v 0.015908 0.018009 -0.000005
v 0.020369 0.019834 -0.000005
v -0.028504 0.017603 -0.000005
v 0.034691 0.077631 -0.000005
v 0.021383 0.024093 -0.000005
v 0.027271 0.081686 -0.000005
v 0.019288 0.035787 -0.000005
v 0.021481 0.087973 -0.000005
v -0.032560 0.020240 -0.000005
v 0.002564 0.105882 -0.000005
v -0.009638 0.100947 -0.000005
v -0.016533 0.097094 -0.000005
v -0.022414 0.088779 -0.000005
v -0.027889 0.076409 -0.000005
v -0.033770 0.057143 -0.000005
v -0.039043 0.030577 -0.000005
v -0.038637 0.023885 -0.000005
v -0.002812 0.100858 0.015740
v -0.006211 0.099946 0.015740
v -0.002137 0.103225 0.013445
v -0.006271 0.102116 0.011509
v 0.012126 0.024964 -0.014036
v 0.015615 0.026391 -0.013568
v 0.016408 0.029721 -0.013568
v 0.011559 0.043385 -0.010342
v 0.007330 0.051182 -0.010342
v 0.002917 0.058767 -0.010342
v 0.000538 0.065268 -0.011137
v -0.000070 0.072375 -0.012128
v 0.006259 0.070182 -0.009549
v 0.010699 0.069230 -0.007304
v 0.015456 0.069864 -0.006581
v 0.018786 0.069864 -0.006581
v 0.022751 0.068755 -0.006581
v 0.026803 0.069920 -0.006581
v 0.028306 0.073156 -0.006581
v 0.026814 0.076104 -0.006581
v 0.021012 0.079275 -0.006581
v 0.016484 0.084191 -0.007304
v 0.012313 0.089883 -0.012128
v 0.008796 0.092595 -0.012128
v 0.003405 0.093230 -0.012128
v -0.003097 0.091485 -0.012128
v -0.008488 0.088472 -0.012128
v -0.013087 0.081971 -0.012128
v -0.017368 0.072298 -0.012128
v -0.021966 0.057234 -0.012923
v -0.026089 0.031941 -0.016789
v -0.025772 0.026708 -0.016789
v -0.022601 0.024646 -0.016789
v 0.013375 0.046618 -0.004518
v 0.008007 0.055843 -0.004518
v 0.015531 0.093687 -0.007739
v 0.011254 0.096986 -0.007739
v 0.005115 0.063750 -0.004518
v 0.004697 0.097757 -0.007739
v 0.004375 0.069954 -0.007739
v -0.003210 0.095636 -0.006322
v 0.008168 0.067286 -0.007739
v -0.009767 0.091971 -0.006322
v 0.013568 0.066129 -0.003663
v -0.015360 0.084064 -0.006322
v 0.019354 0.066900 -0.003663
v -0.020567 0.072300 -0.006322
v 0.023404 0.066900 -0.003663
v -0.026160 0.053979 -0.006322
v 0.028225 0.065550 -0.003663
v -0.031174 0.028715 -0.010983
v 0.033153 0.069407 -0.003663
v -0.030789 0.022351 -0.014686
v 0.034982 0.073344 -0.003663
v 0.015304 0.020229 -0.012401
v 0.019546 0.021965 -0.009180
v -0.026932 0.019844 -0.012401
v 0.033167 0.076929 -0.003663
v 0.020511 0.026015 -0.009180
v 0.026110 0.080786 -0.003663
v 0.018518 0.037136 -0.004518
v 0.020604 0.086764 -0.003663
v 0.004697 0.097757 -0.003285
v -0.003210 0.095636 -0.003285
v -0.009767 0.091971 -0.003285
v -0.015360 0.084064 -0.003285
v -0.020567 0.072300 -0.003285
v -0.026160 0.053979 -0.003284
v -0.031174 0.028715 -0.003284
v -0.030789 0.022351 -0.003284
v 0.002614 0.103795 -0.001287
v -0.008990 0.099102 -0.001287
v -0.015547 0.095438 -0.001287
v -0.021139 0.087531 -0.001287
v -0.026347 0.075767 -0.001287
v -0.031939 0.057446 -0.001287
v -0.036954 0.032182 -0.001287
v -0.036568 0.025817 -0.001287
v -0.002812 0.100858 -0.015751
v -0.006211 0.099946 -0.015751
v -0.002137 0.103225 -0.013456
v -0.006271 0.102116 -0.011520
vn -0.9037 -0.2742 -0.3289
vn -0.4808 -0.2742 -0.8328
vn 0.1670 -0.2741 -0.9471
vn 0.7367 -0.2742 -0.6182
vn 0.9617 -0.2741 -0.0000
vn 0.7367 -0.2742 0.6182
vn 0.1670 -0.2743 0.9470
vn -0.0000 -1.0000 -0.0000
vn -0.4808 -0.2742 0.8328
vn -0.9037 -0.2742 0.3289
vn 0.6398 0.5499 0.5369
vn 0.1650 -0.3114 0.9358
vn 0.8352 0.5499 -0.0000
vn 0.6398 0.5499 -0.5369
vn -0.7848 0.5499 -0.2857
vn 0.1450 0.5500 -0.8225
vn -0.4176 0.5500 -0.7233
vn -0.7848 0.5499 0.2857
vn -0.4176 0.5499 0.7233
vn 0.1450 0.5500 0.8225
vn 0.4822 0.7771 0.4046
vn 0.7280 -0.3114 -0.6108
vn -0.8930 -0.3114 -0.3250
vn -0.4752 -0.3112 0.8230
vn 0.9503 -0.3112 -0.0000
vn -0.4751 -0.3113 -0.8230
vn -0.8930 -0.3113 0.3250
vn 0.7280 -0.3113 0.6108
vn 0.1650 -0.3114 -0.9358
vn -0.0000 1.0000 -0.0000
vn 0.1093 0.7771 -0.6199
vn 0.1093 0.7771 0.6199
vn 0.4821 0.7771 -0.4046
vn -0.5915 0.7771 -0.2153
vn -0.3147 0.7770 0.5451
vn 0.6294 0.7771 -0.0000
vn -0.3147 0.7770 -0.5451
vn -0.5915 0.7771 0.2153
vn 1.0000 -0.0000 -0.0000
vn -0.4039 0.4672 -0.7865
vn -0.9219 0.0885 0.3772
vn 0.6963 0.2896 0.6568
vn 0.1289 0.5551 -0.8218
vn 0.1289 0.5551 0.8217
vn 0.6963 0.2896 -0.6568
vn -0.9219 0.0885 -0.3772
vn -0.4039 0.4672 0.7865
vn 0.7213 0.0408 0.6914
vn 0.7738 0.4197 0.4744
vn 0.4368 0.3472 0.8299
vn 0.7880 0.3733 0.4896
vn 0.2935 0.5370 0.7909
vn 0.0351 -0.5367 0.8430
vn 0.6527 -0.1555 0.7415
vn 0.3881 0.1964 0.9005
vn -0.0690 -0.5291 0.8457
vn 0.4841 -0.1865 0.8549
vn 0.3980 -0.1849 0.8986
vn -0.6875 0.1827 0.7028
vn -0.9809 0.1947 -0.0000
vn 0.2652 -0.4743 0.8395
vn -0.8333 0.2350 0.5004
vn -0.7661 0.6427 -0.0000
vn -0.2362 -0.8432 0.4829
vn -0.8564 0.2719 0.4390
vn -0.0001 -0.7016 0.7126
vn -0.8166 0.3614 0.4500
vn 0.1382 -0.6521 0.7455
vn -0.7220 0.5107 0.4668
vn -0.2591 0.9659 -0.0000
vn 0.4375 -0.3886 0.8109
vn -0.4121 0.7374 0.5352
vn -0.3026 -0.8543 0.4226
vn 0.0970 -0.3614 0.9274
vn -0.8164 0.5775 -0.0000
vn 0.7429 -0.1323 0.6562
vn 0.0802 0.6819 0.7270
vn 0.8050 0.2652 0.5308
vn 0.4039 0.5237 0.7501
vn 0.7721 0.4493 0.4494
vn -0.1076 0.3082 0.9452
vn -0.2793 0.0853 0.9564
vn -0.1577 0.2822 0.9463
vn -0.2945 0.0585 0.9539
vn -0.9144 0.4047 -0.0000
vn -0.4879 0.8729 -0.0000
vn -0.9982 -0.0604 -0.0000
vn -0.9564 0.2920 -0.0000
vn -0.2616 0.1158 0.9582
vn -0.4166 -0.4772 0.7738
vn -0.3374 -0.0204 0.9411
vn -0.2326 0.1645 0.9586
vn -0.5052 -0.0304 0.8624
vn -0.5825 0.1156 0.8045
vn -0.5840 0.1783 0.7919
vn -0.5567 0.2464 0.7933
vn -0.4804 0.3398 0.8085
vn -0.2702 0.4836 0.8325
vn -0.2057 0.5086 0.8360
vn 0.8855 0.3540 0.3011
vn 0.6829 0.6289 0.3716
vn 0.9791 0.1902 0.0720
vn 0.4500 0.8234 0.3456
vn 0.9633 -0.2294 0.1397
vn 0.0090 -0.9842 0.1768
vn 0.4348 -0.8767 0.2056
vn 0.8110 0.4106 0.4168
vn -0.4937 -0.8470 0.1971
vn 0.8582 -0.3987 0.3233
vn 0.6056 -0.7738 0.1858
vn -0.2675 -0.9556 -0.1231
vn -0.0000 -0.9987 -0.0505
vn 0.1321 -0.9910 -0.0207
vn -0.2250 -0.9733 -0.0447
vn -0.5749 -0.8173 -0.0392
vn -0.9995 0.0321 -0.0000
vn 0.9933 0.1151 0.0131
vn 0.1139 0.9681 0.2230
vn 0.8149 0.5295 0.2358
vn 0.5978 0.7751 0.2045
vn 0.9390 0.3435 0.0181
vn 0.8790 0.4768 0.0075
vn 0.8643 0.5030 0.0008
vn 0.8643 0.5030 -0.0000
vn -0.3430 0.7861 0.5142
vn -0.9421 -0.2908 -0.1669
vn 0.7483 0.3392 0.5701
vn 0.0200 0.6833 -0.7299
vn 0.0590 -0.0275 0.9979
vn 0.5028 -0.2336 0.8323
vn 0.1885 -0.1333 0.9730
vn -0.0000 -0.0000 1.0000
vn 0.0484 -0.0174 0.9987
vn 0.0973 0.0904 0.9911
vn 0.0564 0.1947 0.9792
vn 0.1427 0.0764 0.9868
vn 0.7213 0.0407 -0.6914
vn 0.7739 0.4197 -0.4743
vn 0.4367 0.3472 -0.8299
vn 0.7880 0.3733 -0.4896
vn 0.2935 0.5370 -0.7909
vn 0.0351 -0.5367 -0.8431
vn 0.6527 -0.1555 -0.7415
vn 0.3881 0.1964 -0.9005
vn -0.0689 -0.5290 -0.8458
vn 0.4842 -0.1863 -0.8549
vn 0.3980 -0.1849 -0.8986
vn -0.6875 0.1828 -0.7028
vn 0.2652 -0.4743 -0.8395
vn -0.8333 0.2350 -0.5004
vn -0.2360 -0.8431 -0.4832
vn -0.8564 0.2719 -0.4390
vn -0.0000 -0.7016 -0.7126
vn -0.8166 0.3614 -0.4500
vn 0.1380 -0.6521 -0.7454
vn -0.7220 0.5107 -0.4668
vn 0.4377 -0.3884 -0.8109
vn -0.4121 0.7374 -0.5352
vn -0.3026 -0.8543 -0.4226
vn 0.0970 -0.3614 -0.9274
vn 0.7429 -0.1324 -0.6562
vn 0.0802 0.6819 -0.7270
vn 0.8050 0.2652 -0.5307
vn 0.4039 0.5237 -0.7501
vn 0.7722 0.4493 -0.4493
vn -0.1074 0.3079 -0.9453
vn -0.2794 0.0853 -0.9564
vn -0.1578 0.2823 -0.9463
vn -0.2945 0.0585 -0.9539
vn -0.2617 0.1159 -0.9582
vn -0.4166 -0.4772 -0.7738
vn -0.3374 -0.0204 -0.9411
vn -0.2327 0.1646 -0.9585
vn -0.5053 -0.0305 -0.8624
vn -0.5825 0.1156 -0.8045
vn -0.5840 0.1783 -0.7919
vn -0.5567 0.2464 -0.7933
vn -0.4804 0.3398 -0.8085
vn -0.2702 0.4836 -0.8325
vn -0.2057 0.5086 -0.8360
vn 0.8855 0.3540 -0.3010
vn 0.6829 0.6290 -0.3715
vn 0.9791 0.1902 -0.0720
vn 0.4500 0.8235 -0.3455
vn 0.9633 -0.2294 -0.1397
vn 0.0090 -0.9842 -0.1767
vn 0.4348 -0.8767 -0.2056
vn 0.8110 0.4106 -0.4167
vn -0.4937 -0.8470 -0.1971
vn 0.8582 -0.3987 -0.3232
vn 0.6056 -0.7738 -0.1857
vn -0.2675 -0.9557 0.1231
vn -0.0000 -0.9987 0.0505
vn 0.1321 -0.9910 0.0207
vn -0.2250 -0.9733 0.0447
vn -0.5749 -0.8173 0.0392
vn 0.9933 0.1151 -0.0131
vn 0.1139 0.9681 -0.2230
vn 0.8149 0.5295 -0.2357
vn 0.5978 0.7751 -0.2044
vn 0.9390 0.3435 -0.0181
vn 0.8790 0.4768 -0.0075
vn 0.8643 0.5030 -0.0008
vn -0.3430 0.7861 -0.5142
vn -0.9421 -0.2908 0.1669
vn 0.7483 0.3392 -0.5701
vn 0.0200 0.6833 0.7299
vn 0.0589 -0.0274 -0.9979
vn 0.5029 -0.2337 -0.8322
vn 0.1885 -0.1333 -0.9730
vn -0.0000 -0.0000 -1.0000
vn 0.0484 -0.0175 -0.9987
vn 0.0972 0.0904 -0.9911
vn 0.0564 0.1947 -0.9792
vn 0.1427 0.0763 -0.9868
vt 0.069394 0.028533
s 1
usemtl Material.002
f 1/1/1 3/1/1 4/1/1 2/1/1
f 3/1/2 5/1/2 6/1/2 4/1/2
f 5/1/3 7/1/3 8/1/3 6/1/3
f 7/1/4 9/1/4 10/1/4 8/1/4
f 9/1/5 11/1/5 12/1/5 10/1/5
f 11/1/6 13/1/6 14/1/6 12/1/6
f 13/1/7 15/1/7 16/1/7 14/1/7
f 4/1/8 6/1/8 8/1/8 10/1/8 12/1/8 14/1/8 16/1/8 18/1/8 2/1/8
f 15/1/9 17/1/9 18/1/9 16/1/9
f 17/1/10 1/1/10 2/1/10 18/1/10
f 11/1/11 24/1/11 25/1/11 13/1/11
f 25/1/12 34/1/12 35/1/12 26/1/12
f 9/1/13 23/1/13 24/1/13 11/1/13
f 7/1/14 22/1/14 23/1/14 9/1/14
f 1/1/15 19/1/15 20/1/15 3/1/15
f 5/1/16 21/1/16 22/1/16 7/1/16
f 3/1/17 20/1/17 21/1/17 5/1/17
f 17/1/18 27/1/18 19/1/18 1/1/18
f 15/1/19 26/1/19 27/1/19 17/1/19
f 13/1/20 25/1/20 26/1/20 15/1/20
f 33/1/21 42/1/21 43/1/21 34/1/21
f 22/1/22 31/1/22 32/1/22 23/1/22
f 19/1/23 28/1/23 29/1/23 20/1/23
f 26/1/24 35/1/24 36/1/24 27/1/24
f 23/1/25 32/1/25 33/1/25 24/1/25
f 20/1/26 29/1/26 30/1/26 21/1/26
f 27/1/27 36/1/27 28/1/27 19/1/27
f 24/1/28 33/1/28 34/1/28 25/1/28
f 21/1/29 30/1/29 31/1/29 22/1/29
f 37/1/30 46/1/30 47/1/30 38/1/30
f 30/1/31 39/1/31 40/1/31 31/1/31
f 34/1/32 43/1/32 44/1/32 35/1/32
f 31/1/33 40/1/33 41/1/33 32/1/33
f 28/1/34 37/1/34 38/1/34 29/1/34
f 35/1/35 44/1/35 45/1/35 36/1/35
f 32/1/36 41/1/36 42/1/36 33/1/36
f 29/1/37 38/1/37 39/1/37 30/1/37
f 36/1/38 45/1/38 37/1/38 28/1/38
f 50/1/39 59/1/39 60/1/39 51/1/39
f 44/1/30 53/1/30 54/1/30 45/1/30
f 41/1/30 50/1/30 51/1/30 42/1/30
f 38/1/30 47/1/30 48/1/30 39/1/30
f 45/1/30 54/1/30 46/1/30 37/1/30
f 42/1/30 51/1/30 52/1/30 43/1/30
f 39/1/30 48/1/30 49/1/30 40/1/30
f 43/1/30 52/1/30 53/1/30 44/1/30
f 40/1/30 49/1/30 50/1/30 41/1/30
f 55/1/30 63/1/30 62/1/30 61/1/30 60/1/30 59/1/30 58/1/30 57/1/30 56/1/30
f 47/1/40 56/1/40 57/1/40 48/1/40
f 54/1/41 63/1/41 55/1/41 46/1/41
f 51/1/42 60/1/42 61/1/42 52/1/42
f 48/1/43 57/1/43 58/1/43 49/1/43
f 52/1/44 61/1/44 62/1/44 53/1/44
f 49/1/45 58/1/45 59/1/45 50/1/45
f 46/1/46 55/1/46 56/1/46 47/1/46
f 53/1/47 62/1/47 63/1/47 54/1/47
f 82/1/48 81/1/48 121/1/48 95/1/48
f 68/1/49 67/1/49 120/1/49 93/1/49
f 81/1/50 80/1/50 119/1/50 121/1/50
f 67/1/51 66/1/51 118/1/51 120/1/51
f 80/1/52 79/1/52 117/1/52 119/1/52
f 64/1/53 92/1/53 116/1/53 114/1/53
f 66/1/54 65/1/54 115/1/54 118/1/54
f 79/1/55 78/1/55 113/1/55 117/1/55
f 92/1/56 91/1/56 112/1/56 116/1/56
f 65/1/57 64/1/57 114/1/57 115/1/57
f 78/1/58 77/1/58 111/1/58 113/1/58
f 91/1/59 90/1/59 110/1/59 112/1/59
f 110/1/60 108/1/60 127/1/60 128/1/60
f 77/1/61 76/1/61 109/1/61 111/1/61
f 90/1/62 89/1/62 108/1/62 110/1/62
f 160/1/63 112/1/63 129/1/63
f 76/1/64 75/1/64 107/1/64 109/1/64
f 89/1/65 88/1/65 106/1/65 108/1/65
f 75/1/66 74/1/66 105/1/66 107/1/66
f 88/1/67 87/1/67 104/1/67 106/1/67
f 74/1/68 73/1/68 103/1/68 105/1/68
f 87/1/69 86/1/69 102/1/69 104/1/69
f 100/1/70 98/1/70 122/1/70 123/1/70
f 73/1/71 72/1/71 101/1/71 103/1/71
f 86/1/72 85/1/72 100/1/72 102/1/72
f 72/1/73 71/1/73 99/1/73 101/1/73
f 85/1/74 84/1/74 169/1/74 170/1/74
f 104/1/75 102/1/75 124/1/75 125/1/75
f 71/1/76 70/1/76 97/1/76 99/1/76
f 84/1/77 83/1/77 96/1/77 98/1/77
f 70/1/78 69/1/78 94/1/78 97/1/78
f 83/1/79 82/1/79 95/1/79 96/1/79
f 69/1/80 68/1/80 93/1/80 94/1/80
f 123/1/81 122/1/81 130/1/81 131/1/81
f 127/1/82 126/1/82 134/1/82 135/1/82
f 124/1/83 123/1/83 131/1/83 132/1/83
f 128/1/84 127/1/84 135/1/84 136/1/84
f 106/1/85 104/1/85 125/1/85 126/1/85
f 102/1/86 100/1/86 123/1/86 124/1/86
f 112/1/87 110/1/87 128/1/87 129/1/87
f 108/1/88 106/1/88 126/1/88 127/1/88
f 126/1/89 125/1/89 133/1/89 134/1/89
f 160/1/90 129/1/90 137/1/90 168/1/90
f 129/1/91 128/1/91 136/1/91 137/1/91
f 125/1/92 124/1/92 132/1/92 133/1/92
f 137/1/93 136/1/93 167/1/93 168/1/93
f 136/1/94 135/1/94 166/1/94 167/1/94
f 135/1/95 134/1/95 165/1/95 166/1/95
f 134/1/96 133/1/96 164/1/96 165/1/96
f 133/1/97 132/1/97 163/1/97 164/1/97
f 132/1/98 131/1/98 162/1/98 163/1/98
f 131/1/99 130/1/99 161/1/99 162/1/99
f 122/1/100 143/1/100 161/1/100 130/1/100
f 121/1/101 119/1/101 157/1/101 159/1/101
f 120/1/102 118/1/102 156/1/102 158/1/102
f 119/1/103 117/1/103 155/1/103 157/1/103
f 118/1/104 115/1/104 153/1/104 156/1/104
f 114/1/105 116/1/105 154/1/105 152/1/105
f 115/1/106 114/1/106 152/1/106 153/1/106
f 117/1/107 113/1/107 151/1/107 155/1/107
f 116/1/108 112/1/108 160/1/108 154/1/108
f 113/1/109 111/1/109 150/1/109 151/1/109
f 111/1/110 109/1/110 149/1/110 150/1/110
f 109/1/111 107/1/111 148/1/111 149/1/111
f 107/1/112 105/1/112 147/1/112 148/1/112
f 105/1/113 103/1/113 146/1/113 147/1/113
f 103/1/114 101/1/114 145/1/114 146/1/114
f 101/1/115 99/1/115 144/1/115 145/1/115
f 98/1/116 143/1/116 122/1/116
f 99/1/117 97/1/117 142/1/117 144/1/117
f 98/1/118 96/1/118 141/1/118 143/1/118
f 95/1/119 121/1/119 159/1/119 140/1/119
f 96/1/120 95/1/120 140/1/120 141/1/120
f 97/1/121 94/1/121 139/1/121 142/1/121
f 93/1/122 120/1/122 158/1/122 138/1/122
f 94/1/123 93/1/123 138/1/124 139/1/124
f 170/1/125 169/1/125 171/1/125 172/1/125
f 100/1/126 85/1/126 170/1/126 172/1/126
f 84/1/127 98/1/127 171/1/127 169/1/127
f 98/1/128 100/1/128 172/1/128 171/1/128
f 81/1/129 73/1/129 74/1/129 75/1/129 76/1/129 77/1/129 78/1/129 79/1/129 80/1/129
f 72/1/130 73/1/130 81/1/130 82/1/130
f 71/1/131 72/1/131 82/1/131 83/1/131
f 83/1/132 84/1/132 71/1/132
f 85/1/132 71/1/132 84/1/132
f 86/1/132 71/1/132 85/1/132
f 87/1/132 71/1/132 86/1/132
f 88/1/132 71/1/132 87/1/132
f 70/1/133 71/1/133 88/1/133 89/1/133
f 69/1/134 70/1/134 89/1/134 90/1/134
f 64/1/135 65/1/135 66/1/135 67/1/135 92/1/135
f 68/1/136 69/1/136 90/1/136 91/1/136 92/1/136 67/1/136
f 191/1/137 204/1/137 230/1/137 190/1/137
f 177/1/138 202/1/138 229/1/138 176/1/138
f 190/1/139 230/1/139 228/1/139 189/1/139
f 176/1/140 229/1/140 227/1/140 175/1/140
f 189/1/141 228/1/141 226/1/141 188/1/141
f 173/1/142 223/1/142 225/1/142 201/1/142
f 175/1/143 227/1/143 224/1/143 174/1/143
f 188/1/144 226/1/144 222/1/144 187/1/144
f 201/1/145 225/1/145 221/1/145 200/1/145
f 174/1/146 224/1/146 223/1/146 173/1/146
f 187/1/147 222/1/147 220/1/147 186/1/147
f 200/1/148 221/1/148 219/1/148 199/1/148
f 219/1/60 237/1/60 236/1/60 217/1/60
f 186/1/149 220/1/149 218/1/149 185/1/149
f 199/1/150 219/1/150 217/1/150 198/1/150
f 160/1/63 238/1/63 221/1/63
f 185/1/151 218/1/151 216/1/151 184/1/151
f 198/1/152 217/1/152 215/1/152 197/1/152
f 184/1/153 216/1/153 214/1/153 183/1/153
f 197/1/154 215/1/154 213/1/154 196/1/154
f 183/1/155 214/1/155 212/1/155 182/1/155
f 196/1/156 213/1/156 211/1/156 195/1/156
f 209/1/70 232/1/70 231/1/70 207/1/70
f 182/1/157 212/1/157 210/1/157 181/1/157
f 195/1/158 211/1/158 209/1/158 194/1/158
f 181/1/159 210/1/159 208/1/159 180/1/159
f 194/1/160 248/1/160 247/1/160 193/1/160
f 213/1/75 234/1/75 233/1/75 211/1/75
f 180/1/161 208/1/161 206/1/161 179/1/161
f 193/1/162 207/1/162 205/1/162 192/1/162
f 179/1/163 206/1/163 203/1/163 178/1/163
f 192/1/164 205/1/164 204/1/164 191/1/164
f 178/1/165 203/1/165 202/1/165 177/1/165
f 232/1/166 240/1/166 239/1/166 231/1/166
f 236/1/167 244/1/167 243/1/167 235/1/167
f 233/1/168 241/1/168 240/1/168 232/1/168
f 237/1/169 245/1/169 244/1/169 236/1/169
f 215/1/85 235/1/85 234/1/85 213/1/85
f 211/1/86 233/1/86 232/1/86 209/1/86
f 221/1/87 238/1/87 237/1/87 219/1/87
f 217/1/88 236/1/88 235/1/88 215/1/88
f 235/1/170 243/1/170 242/1/170 234/1/170
f 160/1/171 168/1/171 246/1/171 238/1/171
f 238/1/172 246/1/172 245/1/172 237/1/172
f 234/1/173 242/1/173 241/1/173 233/1/173
f 246/1/174 168/1/174 167/1/174 245/1/174
f 245/1/175 167/1/175 166/1/175 244/1/175
f 244/1/176 166/1/176 165/1/176 243/1/176
f 243/1/177 165/1/177 164/1/177 242/1/177
f 242/1/178 164/1/178 163/1/178 241/1/178
f 241/1/179 163/1/179 162/1/179 240/1/179
f 240/1/180 162/1/180 161/1/180 239/1/180
f 231/1/181 239/1/181 161/1/181 143/1/181
f 230/1/182 159/1/182 157/1/182 228/1/182
f 229/1/183 158/1/183 156/1/183 227/1/183
f 228/1/184 157/1/184 155/1/184 226/1/184
f 227/1/185 156/1/185 153/1/185 224/1/185
f 223/1/186 152/1/186 154/1/186 225/1/186
f 224/1/187 153/1/187 152/1/187 223/1/187
f 226/1/188 155/1/188 151/1/188 222/1/188
f 225/1/189 154/1/189 160/1/189 221/1/189
f 222/1/190 151/1/190 150/1/190 220/1/190
f 220/1/191 150/1/191 149/1/191 218/1/191
f 218/1/192 149/1/192 148/1/192 216/1/192
f 216/1/193 148/1/193 147/1/193 214/1/193
f 214/1/194 147/1/194 146/1/194 212/1/194
f 212/1/195 146/1/195 145/1/195 210/1/195
f 210/1/196 145/1/196 144/1/196 208/1/196
f 207/1/116 231/1/116 143/1/116
f 208/1/197 144/1/197 142/1/197 206/1/197
f 207/1/198 143/1/198 141/1/198 205/1/198
f 204/1/199 140/1/199 159/1/199 230/1/199
f 205/1/200 141/1/200 140/1/200 204/1/200
f 206/1/201 142/1/201 139/1/201 203/1/201
f 202/1/202 138/1/202 158/1/202 229/1/202
f 203/1/203 139/1/124 138/1/124 202/1/203
f 248/1/204 250/1/204 249/1/204 247/1/204
f 209/1/205 250/1/205 248/1/205 194/1/205
f 193/1/206 247/1/206 249/1/206 207/1/206
f 207/1/207 249/1/207 250/1/207 209/1/207
f 190/1/208 189/1/208 188/1/208 187/1/208 186/1/208 185/1/208 184/1/208 183/1/208 182/1/208
f 181/1/209 191/1/209 190/1/209 182/1/209
f 180/1/210 192/1/210 191/1/210 181/1/210
f 192/1/211 180/1/211 193/1/211
f 194/1/211 193/1/211 180/1/211
f 195/1/211 194/1/211 180/1/211
f 196/1/211 195/1/211 180/1/211
f 197/1/211 196/1/211 180/1/211
f 179/1/212 198/1/212 197/1/212 180/1/212
f 178/1/213 199/1/213 198/1/213 179/1/213
f 173/1/214 201/1/214 176/1/214 175/1/214 174/1/214
f 177/1/215 176/1/215 201/1/215 200/1/215 199/1/215 178/1/215
