# Blender 4.1.1
# www.blender.org
mtllib cavalier.mtl
o WhiteKnight.003
v -0.000016 0.003166 -0.035463
v -0.000016 -0.002157 -0.033848
v 0.020591 0.003166 -0.027963
v 0.019552 -0.002157 -0.026726
v 0.031555 0.003166 -0.008972
v 0.029965 -0.002157 -0.008691
v 0.027747 0.003166 0.012624
v 0.026349 -0.002157 0.011816
v 0.010949 0.003166 0.026719
v 0.010396 -0.002157 0.025202
v -0.010980 0.003166 0.026719
v -0.010428 -0.002157 0.025202
v -0.027779 0.003166 0.012624
v -0.026380 -0.002157 0.011816
v -0.031587 0.003166 -0.008972
v -0.029996 -0.002157 -0.008691
v -0.020622 0.003166 -0.027963
v -0.019584 -0.002157 -0.026726
v -0.000016 0.010565 -0.030279
v 0.017258 0.010565 -0.023991
v 0.026449 0.010565 -0.008072
v 0.023257 0.010565 0.010032
v 0.009175 0.010565 0.021848
v -0.009207 0.010565 0.021848
v -0.023289 0.010565 0.010032
v -0.026481 0.010565 -0.008072
v -0.017290 0.010565 -0.023991
v -0.000016 0.014214 -0.031551
v 0.018076 0.014214 -0.024966
v 0.027702 0.014214 -0.008292
v 0.024359 0.014214 0.010668
v 0.009611 0.014214 0.023043
v -0.009642 0.014214 0.023043
v -0.024391 0.014214 0.010668
v -0.027734 0.014214 -0.008292
v -0.018107 0.014214 -0.024966
v -0.000016 0.017305 -0.027490
v 0.015466 0.017305 -0.021855
v 0.023703 0.017305 -0.007587
v 0.020842 0.017305 0.008637
v 0.008222 0.017305 0.019227
v -0.008253 0.017305 0.019227
v -0.020874 0.017305 0.008637
v -0.023735 0.017305 -0.007587
v -0.015497 0.017305 -0.021855
v -0.000016 0.017305 -0.018438
v 0.009647 0.017305 -0.014921
v 0.014788 0.017305 -0.006015
v 0.013003 0.017305 0.004111
v 0.005126 0.017305 0.010721
v -0.005157 0.017305 0.010721
v -0.013034 0.017305 0.004111
v -0.014820 0.017305 -0.006015
v -0.009678 0.017305 -0.014921
v -0.000016 0.021853 -0.018438
v 0.007513 0.021853 -0.014921
v 0.011519 0.021853 -0.006015
v 0.010128 0.021853 0.004111
v 0.003990 0.021853 0.010721
v -0.004022 0.021853 0.010721
v -0.010159 0.021853 0.004111
v -0.011550 0.021853 -0.006015
v -0.007545 0.021853 -0.014921
v -0.014025 0.024964 0.012126
v -0.013558 0.026391 0.015615
v -0.013558 0.029721 0.016408
v -0.010331 0.043385 0.011559
v -0.010331 0.051182 0.007330
v -0.010331 0.058767 0.002917
v -0.011127 0.065268 0.000538
v -0.012117 0.072375 -0.000070
v -0.009538 0.070182 0.006259
v -0.007294 0.069230 0.010699
v -0.006570 0.069865 0.015456
v -0.006570 0.069864 0.018786
v -0.006570 0.068755 0.022751
v -0.006570 0.069920 0.026803
v -0.006570 0.073156 0.028306
v -0.006570 0.076104 0.026814
v -0.006570 0.079275 0.021012
v -0.007294 0.084191 0.016484
v -0.012117 0.089883 0.012313
v -0.012117 0.092595 0.008796
v -0.012117 0.093230 0.003405
v -0.012117 0.091485 -0.003097
v -0.012117 0.088472 -0.008488
v -0.012117 0.081971 -0.013087
v -0.012117 0.072298 -0.017368
v -0.012913 0.057234 -0.021966
v -0.016779 0.031941 -0.026089
v -0.016779 0.026708 -0.025772
v -0.016779 0.024646 -0.022601
v -0.004508 0.046618 0.013375
v -0.004508 0.055843 0.008007
v -0.007728 0.093687 0.015531
v -0.007728 0.096986 0.011254
v -0.004508 0.063750 0.005115
v -0.007728 0.097757 0.004697
v -0.007728 0.069954 0.004375
v -0.006311 0.095636 -0.003210
v -0.007728 0.067286 0.008168
v -0.006311 0.091971 -0.009767
v -0.003652 0.066129 0.013568
v -0.006311 0.084064 -0.015360
v -0.003652 0.066900 0.019354
v -0.006311 0.072300 -0.020567
v -0.003652 0.066900 0.023404
v -0.006311 0.053979 -0.026160
v -0.003652 0.065550 0.028225
v -0.010973 0.028715 -0.031174
v -0.003652 0.069407 0.033153
v -0.014675 0.022351 -0.030789
v -0.003652 0.073344 0.034982
v -0.012390 0.020229 0.015304
v -0.009169 0.021965 0.019546
v -0.012390 0.019844 -0.026932
v -0.003652 0.076929 0.033167
v -0.009169 0.026015 0.020511
v -0.003652 0.080786 0.026110
v -0.004508 0.037136 0.018518
v -0.003652 0.086764 0.020604
v -0.003274 0.097757 0.004697
v -0.003274 0.095636 -0.003210
v -0.003274 0.091971 -0.009767
v -0.003274 0.084064 -0.015360
v -0.003274 0.072300 -0.020567
v -0.003274 0.053979 -0.026160
v -0.003274 0.028715 -0.031174
v -0.003274 0.022351 -0.030789
v -0.001277 0.103795 0.002614
v -0.001277 0.099102 -0.008990
v -0.001277 0.095438 -0.015547
v -0.001277 0.087531 -0.021139
v -0.001277 0.075767 -0.026347
v -0.001277 0.057446 -0.031939
v -0.001277 0.032182 -0.036954
v -0.001277 0.025817 -0.036568
v 0.000005 0.045758 0.013880
v 0.000005 0.055458 0.008235
v 0.000005 0.095252 0.016147
v 0.000005 0.098721 0.011649
v 0.000005 0.063773 0.005193
v 0.000005 0.099532 0.004754
v 0.000005 0.070296 0.004416
v 0.000005 0.067491 0.008404
v 0.000005 0.066274 0.014083
v 0.000005 0.067085 0.020166
v 0.000005 0.067085 0.024425
v 0.000005 0.065666 0.029495
v 0.000005 0.069722 0.034677
v 0.000005 0.073861 0.036600
v 0.000005 0.018009 0.015908
v 0.000005 0.019834 0.020369
v 0.000005 0.017603 -0.028504
v 0.000005 0.077631 0.034691
v 0.000005 0.024093 0.021383
v 0.000005 0.081686 0.027271
v 0.000005 0.035787 0.019288
v 0.000005 0.087973 0.021481
v 0.000005 0.020240 -0.032560
v 0.000005 0.105882 0.002564
v 0.000005 0.100947 -0.009638
v 0.000005 0.097094 -0.016533
v 0.000005 0.088779 -0.022414
v 0.000005 0.076409 -0.027889
v 0.000005 0.057143 -0.033770
v 0.000005 0.030577 -0.039043
v 0.000005 0.023885 -0.038637
v -0.015740 0.100858 -0.002812
v -0.015740 0.099946 -0.006211
v -0.013445 0.103225 -0.002137
v -0.011509 0.102116 -0.006271
v 0.014036 0.024964 0.012126
v 0.013568 0.026391 0.015615
v 0.013568 0.029721 0.016408
v 0.010342 0.043385 0.011559
v 0.010342 0.051182 0.007330
v 0.010342 0.058767 0.002917
v 0.011137 0.065268 0.000538
v 0.012128 0.072375 -0.000070
v 0.009549 0.070182 0.006259
v 0.007304 0.069230 0.010699
v 0.006581 0.069864 0.015456
v 0.006581 0.069864 0.018786
v 0.006581 0.068755 0.022751
v 0.006581 0.069920 0.026803
v 0.006581 0.073156 0.028306
v 0.006581 0.076104 0.026814
v 0.006581 0.079275 0.021012
v 0.007304 0.084191 0.016484
v 0.012128 0.089883 0.012313
v 0.012128 0.092595 0.008796
v 0.012128 0.093230 0.003405
v 0.012128 0.091485 -0.003097
v 0.012128 0.088472 -0.008488
v 0.012128 0.081971 -0.013087
v 0.012128 0.072298 -0.017368
v 0.012923 0.057234 -0.021966
v 0.016789 0.031941 -0.026089
v 0.016789 0.026708 -0.025772
v 0.016789 0.024646 -0.022601
v 0.004518 0.046618 0.013375
v 0.004518 0.055843 0.008007
v 0.007739 0.093687 0.015531
v 0.007739 0.096986 0.011254
v 0.004518 0.063750 0.005115
v 0.007739 0.097757 0.004697
v 0.007739 0.069954 0.004375
v 0.006322 0.095636 -0.003210
v 0.007739 0.067286 0.008168
v 0.006322 0.091971 -0.009767
v 0.003663 0.066129 0.013568
v 0.006322 0.084064 -0.015360
v 0.003663 0.066900 0.019354
v 0.006322 0.072300 -0.020567
v 0.003663 0.066900 0.023404
v 0.006322 0.053979 -0.026160
v 0.003663 0.065550 0.028225
v 0.010983 0.028715 -0.031174
v 0.003663 0.069407 0.033153
v 0.014686 0.022351 -0.030789
v 0.003663 0.073344 0.034982
v 0.012401 0.020229 0.015304
v 0.009180 0.021965 0.019546
v 0.012401 0.019844 -0.026932
v 0.003663 0.076929 0.033167
v 0.009180 0.026015 0.020511
v 0.003663 0.080786 0.026110
v 0.004518 0.037136 0.018518
v 0.003663 0.086764 0.020604
v 0.003285 0.097757 0.004697
v 0.003285 0.095636 -0.003210
v 0.003285 0.091971 -0.009767
v 0.003285 0.084064 -0.015360
v 0.003285 0.072300 -0.020567
v 0.003284 0.053979 -0.026160
v 0.003284 0.028715 -0.031174
v 0.003284 0.022351 -0.030789
v 0.001287 0.103795 0.002614
v 0.001287 0.099102 -0.008990
v 0.001287 0.095438 -0.015547
v 0.001287 0.087531 -0.021139
v 0.001287 0.075767 -0.026347
v 0.001287 0.057446 -0.031939
v 0.001287 0.032182 -0.036954
v 0.001287 0.025817 -0.036568
v 0.015751 0.100858 -0.002812
v 0.015751 0.099946 -0.006211
v 0.013456 0.103225 -0.002137
v 0.011520 0.102116 -0.006271
vn 0.3289 -0.2742 -0.9037
vn 0.8328 -0.2742 -0.4808
vn 0.9471 -0.2742 0.1670
vn 0.6181 -0.2742 0.7367
vn -0.0000 -0.2742 0.9617
vn -0.6181 -0.2742 0.7367
vn -0.9471 -0.2742 0.1670
vn -0.0000 -1.0000 -0.0000
vn -0.8328 -0.2742 -0.4808
vn -0.3289 -0.2742 -0.9037
vn -0.5369 0.5499 0.6398
vn -0.9359 -0.3113 0.1650
vn -0.0000 0.5499 0.8352
vn 0.5369 0.5499 0.6398
vn 0.2857 0.5499 -0.7848
vn 0.8225 0.5499 0.1450
vn 0.7233 0.5499 -0.4176
vn -0.2857 0.5499 -0.7848
vn -0.7233 0.5499 -0.4176
vn -0.8225 0.5499 0.1450
vn -0.4046 0.7770 0.4822
vn 0.6109 -0.3113 0.7280
vn 0.3250 -0.3113 -0.8930
vn -0.8230 -0.3113 -0.4752
vn -0.0000 -0.3113 0.9503
vn 0.8230 -0.3113 -0.4752
vn -0.3250 -0.3113 -0.8930
vn -0.6109 -0.3113 0.7280
vn 0.9359 -0.3113 0.1650
vn -0.0000 1.0000 -0.0000
vn 0.6199 0.7770 0.1093
vn -0.6199 0.7770 0.1093
vn 0.4046 0.7770 0.4822
vn 0.2153 0.7770 -0.5915
vn -0.5451 0.7770 -0.3147
vn -0.0000 0.7770 0.6295
vn 0.5451 0.7770 -0.3147
vn -0.2153 0.7770 -0.5915
vn -0.0000 -0.0000 1.0000
vn 0.7865 0.4672 -0.4039
vn -0.3772 0.0885 -0.9219
vn -0.6568 0.2896 0.6963
vn 0.8217 0.5551 0.1289
vn -0.8217 0.5551 0.1289
vn 0.6568 0.2896 0.6963
vn 0.3772 0.0885 -0.9219
vn -0.7865 0.4672 -0.4039
vn -0.6914 0.0408 0.7213
vn -0.4743 0.4197 0.7738
vn -0.8299 0.3472 0.4367
vn -0.4896 0.3733 0.7880
vn -0.7909 0.5370 0.2935
vn -0.8430 -0.5367 0.0351
vn -0.7415 -0.1554 0.6527
vn -0.9004 0.1965 0.3881
vn -0.8458 -0.5291 -0.0689
vn -0.8549 -0.1865 0.4841
vn -0.8986 -0.1849 0.3980
vn -0.7028 0.1827 -0.6875
vn -0.0000 0.1947 -0.9809
vn -0.8395 -0.4743 0.2652
vn -0.5004 0.2350 -0.8333
vn -0.0000 0.6428 -0.7660
vn -0.4830 -0.8432 -0.2361
vn -0.4390 0.2719 -0.8564
vn -0.7127 -0.7015 -0.0000
vn -0.4501 0.3614 -0.8166
vn -0.7455 -0.6521 0.1381
vn -0.4669 0.5107 -0.7220
vn -0.0000 0.9658 -0.2591
vn -0.8109 -0.3884 0.4377
vn -0.5352 0.7374 -0.4121
vn -0.4226 -0.8543 -0.3027
vn -0.9273 -0.3614 0.0970
vn -0.0000 0.5775 -0.8164
vn -0.6562 -0.1324 0.7429
vn -0.7271 0.6819 0.0802
vn -0.5307 0.2652 0.8050
vn -0.7501 0.5237 0.4039
vn -0.4494 0.4493 0.7721
vn -0.9452 0.3082 -0.1076
vn -0.9564 0.0853 -0.2794
vn -0.9463 0.2822 -0.1577
vn -0.9538 0.0585 -0.2946
vn -0.0000 0.4047 -0.9144
vn -0.0000 0.8729 -0.4878
vn -0.0000 -0.0605 -0.9982
vn -0.0000 0.2920 -0.9564
vn -0.9582 0.1158 -0.2617
vn -0.7738 -0.4771 -0.4166
vn -0.9411 -0.0205 -0.3375
vn -0.9586 0.1645 -0.2326
vn -0.8623 -0.0306 -0.5055
vn -0.8046 0.1156 -0.5825
vn -0.7920 0.1783 -0.5840
vn -0.7933 0.2464 -0.5567
vn -0.8085 0.3398 -0.4805
vn -0.8325 0.4836 -0.2703
vn -0.8360 0.5087 -0.2057
vn -0.3011 0.3540 0.8854
vn -0.3716 0.6290 0.6829
vn -0.0720 0.1902 0.9791
vn -0.3456 0.8234 0.4501
vn -0.1397 -0.2294 0.9633
vn -0.1768 -0.9842 0.0090
vn -0.2056 -0.8768 0.4348
vn -0.4168 0.4106 0.8110
vn -0.1971 -0.8470 -0.4936
vn -0.3233 -0.3987 0.8582
vn -0.1859 -0.7738 0.6056
vn 0.1230 -0.9556 -0.2676
vn 0.0505 -0.9987 -0.0000
vn 0.0207 -0.9910 0.1321
vn 0.0447 -0.9733 -0.2250
vn 0.0392 -0.8173 -0.5749
vn -0.0000 0.0323 -0.9995
vn -0.0131 0.1150 0.9933
vn -0.2231 0.9681 0.1139
vn -0.2358 0.5295 0.8149
vn -0.2045 0.7751 0.5979
vn -0.0181 0.3435 0.9390
vn -0.0074 0.4767 0.8790
vn -0.0008 0.5029 0.8643
vn -0.0000 0.5029 0.8643
vn -0.5142 0.7861 -0.3430
vn 0.1669 -0.2909 -0.9421
vn -0.5701 0.3391 0.7483
vn 0.7299 0.6833 0.0200
vn -0.9979 -0.0274 0.0590
vn -0.8322 -0.2337 0.5028
vn -0.9730 -0.1333 0.1884
vn -1.0000 -0.0000 -0.0000
vn -0.9987 -0.0175 0.0484
vn -0.9911 0.0904 0.0973
vn -0.9792 0.1947 0.0564
vn -0.9868 0.0764 0.1427
vn 0.6915 0.0407 0.7213
vn 0.4743 0.4197 0.7738
vn 0.8299 0.3472 0.4367
vn 0.4896 0.3733 0.7880
vn 0.7909 0.5370 0.2935
vn 0.8430 -0.5367 0.0351
vn 0.7415 -0.1554 0.6527
vn 0.9004 0.1965 0.3881
vn 0.8458 -0.5291 -0.0689
vn 0.8549 -0.1865 0.4841
vn 0.8986 -0.1849 0.3980
vn 0.7028 0.1827 -0.6875
vn 0.8395 -0.4743 0.2652
vn 0.5004 0.2350 -0.8333
vn 0.4830 -0.8432 -0.2361
vn 0.4390 0.2719 -0.8564
vn 0.7127 -0.7015 -0.0000
vn 0.4501 0.3614 -0.8166
vn 0.7455 -0.6521 0.1381
vn 0.4669 0.5107 -0.7220
vn 0.8109 -0.3884 0.4377
vn 0.5352 0.7374 -0.4121
vn 0.4226 -0.8543 -0.3027
vn 0.9273 -0.3614 0.0970
vn 0.6562 -0.1324 0.7429
vn 0.7271 0.6819 0.0802
vn 0.5307 0.2652 0.8050
vn 0.7501 0.5237 0.4039
vn 0.4494 0.4493 0.7721
vn 0.9452 0.3082 -0.1076
vn 0.9564 0.0853 -0.2794
vn 0.9463 0.2822 -0.1577
vn 0.9538 0.0585 -0.2946
vn 0.9582 0.1158 -0.2617
vn 0.7738 -0.4771 -0.4166
vn 0.9411 -0.0205 -0.3375
vn 0.9586 0.1645 -0.2326
vn 0.8623 -0.0306 -0.5055
vn 0.8046 0.1156 -0.5825
vn 0.7920 0.1783 -0.5840
vn 0.7933 0.2464 -0.5567
vn 0.8085 0.3398 -0.4805
vn 0.8325 0.4836 -0.2703
vn 0.8360 0.5087 -0.2057
vn 0.3011 0.3540 0.8854
vn 0.3716 0.6290 0.6829
vn 0.0720 0.1902 0.9791
vn 0.3456 0.8234 0.4501
vn 0.1397 -0.2294 0.9633
vn 0.1768 -0.9842 0.0090
vn 0.2056 -0.8768 0.4348
vn 0.4168 0.4106 0.8110
vn 0.1971 -0.8470 -0.4936
vn 0.3233 -0.3987 0.8582
vn 0.1859 -0.7738 0.6056
vn -0.1230 -0.9556 -0.2676
vn -0.0505 -0.9987 -0.0000
vn -0.0207 -0.9910 0.1321
vn -0.0447 -0.9733 -0.2250
vn -0.0392 -0.8173 -0.5749
vn 0.0131 0.1150 0.9933
vn 0.2231 0.9681 0.1139
vn 0.2358 0.5295 0.8149
vn 0.2045 0.7751 0.5979
vn 0.0181 0.3435 0.9390
vn 0.0074 0.4767 0.8790
vn 0.0008 0.5029 0.8643
vn 0.5142 0.7861 -0.3430
vn -0.1669 -0.2909 -0.9421
vn 0.5701 0.3391 0.7483
vn -0.7299 0.6833 0.0200
vn 0.9979 -0.0274 0.0590
vn 0.8322 -0.2337 0.5028
vn 0.9730 -0.1333 0.1884
vn 1.0000 -0.0000 -0.0000
vn 0.9987 -0.0175 0.0484
vn 0.9911 0.0904 0.0973
vn 0.9792 0.1947 0.0564
vn 0.9868 0.0764 0.1427
vt 0.069394 0.028533
vt 0.069394 0.028533
s 1
usemtl Material.002
f 1/1/1 3/1/1 4/1/1 2/1/1
f 3/1/2 5/1/2 6/1/2 4/1/2
f 5/1/3 7/1/3 8/1/3 6/1/3
f 7/1/4 9/1/4 10/1/4 8/1/4
f 9/1/5 11/1/5 12/1/5 10/1/5
f 11/1/6 13/1/6 14/1/6 12/1/6
f 13/1/7 15/1/7 16/1/7 14/1/7
f 4/1/8 6/1/8 8/1/8 10/1/8 12/2/8 14/1/8 16/1/8 18/1/8 2/1/8
f 15/1/9 17/1/9 18/1/9 16/1/9
f 17/1/10 1/1/10 2/1/10 18/1/10
f 11/1/11 24/1/11 25/1/11 13/1/11
f 25/1/12 34/1/12 35/1/12 26/1/12
f 9/1/13 23/1/13 24/1/13 11/1/13
f 7/1/14 22/1/14 23/1/14 9/1/14
f 1/1/15 19/1/15 20/1/15 3/1/15
f 5/1/16 21/1/16 22/1/16 7/1/16
f 3/1/17 20/1/17 21/1/17 5/1/17
f 17/1/18 27/1/18 19/1/18 1/1/18
f 15/1/19 26/1/19 27/1/19 17/1/19
f 13/1/20 25/1/20 26/1/20 15/1/20
f 33/1/21 42/1/21 43/1/21 34/1/21
f 22/1/22 31/1/22 32/1/22 23/1/22
f 19/1/23 28/1/23 29/1/23 20/1/23
f 26/1/24 35/1/24 36/1/24 27/1/24
f 23/1/25 32/1/25 33/1/25 24/1/25
f 20/1/26 29/1/26 30/1/26 21/1/26
f 27/1/27 36/1/27 28/1/27 19/1/27
f 24/1/28 33/1/28 34/1/28 25/1/28
f 21/1/29 30/1/29 31/1/29 22/1/29
f 37/1/30 46/1/30 47/1/30 38/1/30
f 30/1/31 39/1/31 40/1/31 31/1/31
f 34/1/32 43/1/32 44/1/32 35/1/32
f 31/1/33 40/1/33 41/1/33 32/1/33
f 28/1/34 37/1/34 38/1/34 29/1/34
f 35/1/35 44/1/35 45/1/35 36/1/35
f 32/1/36 41/1/36 42/1/36 33/1/36
f 29/1/37 38/1/37 39/1/37 30/1/37
f 36/1/38 45/1/38 37/1/38 28/1/38
f 50/1/39 59/1/39 60/1/39 51/1/39
f 44/1/30 53/1/30 54/1/30 45/1/30
f 41/1/30 50/1/30 51/1/30 42/1/30
f 38/1/30 47/1/30 48/1/30 39/1/30
f 45/1/30 54/1/30 46/1/30 37/1/30
f 42/1/30 51/1/30 52/1/30 43/1/30
f 39/1/30 48/1/30 49/1/30 40/1/30
f 43/1/30 52/1/30 53/1/30 44/1/30
f 40/1/30 49/1/30 50/1/30 41/1/30
f 55/1/30 63/1/30 62/1/30 61/1/30 60/1/30 59/1/30 58/1/30 57/1/30 56/1/30
f 47/1/40 56/1/40 57/1/40 48/1/40
f 54/1/41 63/1/41 55/1/41 46/1/41
f 51/1/42 60/1/42 61/1/42 52/1/42
f 48/1/43 57/1/43 58/1/43 49/1/43
f 52/1/44 61/1/44 62/1/44 53/1/44
f 49/1/45 58/1/45 59/1/45 50/1/45
f 46/1/46 55/1/46 56/1/46 47/1/46
f 53/1/47 62/1/47 63/1/47 54/1/47
f 82/1/48 81/1/48 121/1/48 95/1/48
f 68/1/49 67/1/49 120/1/49 93/1/49
f 81/1/50 80/1/50 119/1/50 121/1/50
f 67/1/51 66/1/51 118/1/51 120/1/51
f 80/1/52 79/1/52 117/1/52 119/1/52
f 64/1/53 92/1/53 116/1/53 114/1/53
f 66/1/54 65/1/54 115/1/54 118/1/54
f 79/1/55 78/1/55 113/1/55 117/1/55
f 92/1/56 91/1/56 112/1/56 116/1/56
f 65/1/57 64/1/57 114/1/57 115/1/57
f 78/1/58 77/1/58 111/1/58 113/1/58
f 91/1/59 90/1/59 110/1/59 112/1/59
f 110/1/60 108/1/60 127/1/60 128/1/60
f 77/1/61 76/1/61 109/1/61 111/1/61
f 90/1/62 89/1/62 108/1/62 110/1/62
f 160/1/63 112/1/63 129/1/63
f 76/1/64 75/1/64 107/1/64 109/1/64
f 89/1/65 88/1/65 106/1/65 108/1/65
f 75/1/66 74/1/66 105/1/66 107/1/66
f 88/1/67 87/1/67 104/1/67 106/1/67
f 74/1/68 73/1/68 103/1/68 105/1/68
f 87/1/69 86/1/69 102/1/69 104/1/69
f 100/1/70 98/1/70 122/1/70 123/1/70
f 73/1/71 72/1/71 101/1/71 103/1/71
f 86/1/72 85/1/72 100/1/72 102/1/72
f 72/1/73 71/1/73 99/1/73 101/1/73
f 85/1/74 84/1/74 169/1/74 170/1/74
f 104/1/75 102/1/75 124/1/75 125/1/75
f 71/1/76 70/1/76 97/1/76 99/1/76
f 84/1/77 83/1/77 96/1/77 98/1/77
f 70/1/78 69/1/78 94/1/78 97/1/78
f 83/1/79 82/1/79 95/1/79 96/1/79
f 69/1/80 68/1/80 93/1/80 94/1/80
f 123/1/81 122/1/81 130/1/81 131/1/81
f 127/1/82 126/1/82 134/1/82 135/1/82
f 124/1/83 123/1/83 131/1/83 132/1/83
f 128/1/84 127/1/84 135/1/84 136/1/84
f 106/1/85 104/1/85 125/1/85 126/1/85
f 102/1/86 100/1/86 123/1/86 124/1/86
f 112/1/87 110/1/87 128/1/87 129/1/87
f 108/1/88 106/1/88 126/1/88 127/1/88
f 126/1/89 125/1/89 133/1/89 134/1/89
f 160/1/90 129/1/90 137/1/90 168/1/90
f 129/1/91 128/1/91 136/1/91 137/1/91
f 125/1/92 124/1/92 132/1/92 133/1/92
f 137/1/93 136/1/93 167/1/93 168/1/93
f 136/1/94 135/1/94 166/1/94 167/1/94
f 135/1/95 134/1/95 165/1/95 166/1/95
f 134/1/96 133/1/96 164/1/96 165/1/96
f 133/1/97 132/1/97 163/1/97 164/1/97
f 132/1/98 131/1/98 162/1/98 163/1/98
f 131/1/99 130/1/99 161/1/99 162/1/99
f 122/1/100 143/1/100 161/1/100 130/1/100
f 121/1/101 119/1/101 157/1/101 159/1/101
f 120/1/102 118/1/102 156/1/102 158/1/102
f 119/1/103 117/1/103 155/1/103 157/1/103
f 118/1/104 115/1/104 153/1/104 156/1/104
f 114/1/105 116/1/105 154/1/105 152/1/105
f 115/1/106 114/1/106 152/1/106 153/1/106
f 117/1/107 113/1/107 151/1/107 155/1/107
f 116/1/108 112/1/108 160/1/108 154/1/108
f 113/1/109 111/1/109 150/1/109 151/1/109
f 111/1/110 109/1/110 149/1/110 150/1/110
f 109/1/111 107/1/111 148/1/111 149/1/111
f 107/1/112 105/1/112 147/1/112 148/1/112
f 105/1/113 103/1/113 146/1/113 147/1/113
f 103/1/114 101/1/114 145/1/114 146/1/114
f 101/1/115 99/1/115 144/1/115 145/1/115
f 98/1/116 143/1/116 122/1/116
f 99/1/117 97/1/117 142/1/117 144/1/117
f 98/1/118 96/1/118 141/1/118 143/1/118
f 95/1/119 121/1/119 159/1/119 140/1/119
f 96/1/120 95/1/120 140/1/120 141/1/120
f 97/1/121 94/1/121 139/1/121 142/1/121
f 93/1/122 120/1/122 158/1/122 138/1/122
f 94/1/123 93/1/123 138/1/124 139/1/124
f 170/1/125 169/1/125 171/1/125 172/1/125
f 100/1/126 85/1/126 170/1/126 172/1/126
f 84/1/127 98/1/127 171/1/127 169/1/127
f 98/1/128 100/1/128 172/1/128 171/1/128
f 81/1/129 73/1/129 74/1/129 75/1/129 76/1/129 77/1/129 78/1/129 79/1/129 80/1/129
f 72/1/130 73/1/130 81/1/130 82/1/130
f 71/1/131 72/1/131 82/1/131 83/1/131
f 83/1/132 84/1/132 71/1/132
f 85/1/132 71/1/132 84/1/132
f 86/1/132 71/1/132 85/1/132
f 87/1/132 71/1/132 86/1/132
f 88/1/132 71/1/132 87/1/132
f 70/1/133 71/1/133 88/1/133 89/1/133
f 69/1/134 70/1/134 89/1/134 90/1/134
f 64/1/135 65/1/135 66/1/135 67/1/135 92/1/135
f 68/1/136 69/1/136 90/1/136 91/1/136 92/1/136 67/1/136
f 191/1/137 204/1/137 230/1/137 190/1/137
f 177/1/138 202/1/138 229/1/138 176/1/138
f 190/1/139 230/1/139 228/1/139 189/1/139
f 176/1/140 229/1/140 227/1/140 175/1/140
f 189/1/141 228/1/141 226/1/141 188/1/141
f 173/1/142 223/1/142 225/1/142 201/1/142
f 175/1/143 227/1/143 224/1/143 174/1/143
f 188/1/144 226/1/144 222/1/144 187/1/144
f 201/1/145 225/1/145 221/1/145 200/1/145
f 174/1/146 224/1/146 223/1/146 173/1/146
f 187/1/147 222/1/147 220/1/147 186/1/147
f 200/1/148 221/1/148 219/1/148 199/1/148
f 219/1/60 237/1/60 236/1/60 217/1/60
f 186/1/149 220/1/149 218/1/149 185/1/149
f 199/1/150 219/1/150 217/1/150 198/1/150
f 160/1/63 238/1/63 221/1/63
f 185/1/151 218/1/151 216/1/151 184/1/151
f 198/1/152 217/1/152 215/1/152 197/1/152
f 184/1/153 216/1/153 214/1/153 183/1/153
f 197/1/154 215/1/154 213/1/154 196/1/154
f 183/1/155 214/1/155 212/1/155 182/1/155
f 196/1/156 213/1/156 211/1/156 195/1/156
f 209/1/70 232/1/70 231/1/70 207/1/70
f 182/1/157 212/1/157 210/1/157 181/1/157
f 195/1/158 211/1/158 209/1/158 194/1/158
f 181/1/159 210/1/159 208/1/159 180/1/159
f 194/1/160 248/1/160 247/1/160 193/1/160
f 213/1/75 234/1/75 233/1/75 211/1/75
f 180/1/161 208/1/161 206/1/161 179/1/161
f 193/1/162 207/1/162 205/1/162 192/1/162
f 179/1/163 206/1/163 203/1/163 178/1/163
f 192/1/164 205/1/164 204/1/164 191/1/164
f 178/1/165 203/1/165 202/1/165 177/1/165
f 232/1/166 240/1/166 239/1/166 231/1/166
f 236/1/167 244/1/167 243/1/167 235/1/167
f 233/1/168 241/1/168 240/1/168 232/1/168
f 237/1/169 245/1/169 244/1/169 236/1/169
f 215/1/85 235/1/85 234/1/85 213/1/85
f 211/1/86 233/1/86 232/1/86 209/1/86
f 221/1/87 238/1/87 237/1/87 219/1/87
f 217/1/88 236/1/88 235/1/88 215/1/88
f 235/1/170 243/1/170 242/1/170 234/1/170
f 160/1/171 168/1/171 246/1/171 238/1/171
f 238/1/172 246/1/172 245/1/172 237/1/172
f 234/1/173 242/1/173 241/1/173 233/1/173
f 246/1/174 168/1/174 167/1/174 245/1/174
f 245/1/175 167/1/175 166/1/175 244/1/175
f 244/1/176 166/1/176 165/1/176 243/1/176
f 243/1/177 165/1/177 164/1/177 242/1/177
f 242/1/178 164/1/178 163/1/178 241/1/178
f 241/1/179 163/1/179 162/1/179 240/1/179
f 240/1/180 162/1/180 161/1/180 239/1/180
f 231/1/181 239/1/181 161/1/181 143/1/181
f 230/1/182 159/1/182 157/1/182 228/1/182
f 229/1/183 158/1/183 156/1/183 227/1/183
f 228/1/184 157/1/184 155/1/184 226/1/184
f 227/1/185 156/1/185 153/1/185 224/1/185
f 223/1/186 152/1/186 154/1/186 225/1/186
f 224/1/187 153/1/187 152/1/187 223/1/187
f 226/1/188 155/1/188 151/1/188 222/1/188
f 225/1/189 154/1/189 160/1/189 221/1/189
f 222/1/190 151/1/190 150/1/190 220/1/190
f 220/1/191 150/1/191 149/1/191 218/1/191
f 218/1/192 149/1/192 148/1/192 216/1/192
f 216/1/193 148/1/193 147/1/193 214/1/193
f 214/1/194 147/1/194 146/1/194 212/1/194
f 212/1/195 146/1/195 145/1/195 210/1/195
f 210/1/196 145/1/196 144/1/196 208/1/196
f 207/1/116 231/1/116 143/1/116
f 208/1/197 144/1/197 142/1/197 206/1/197
f 207/1/198 143/1/198 141/1/198 205/1/198
f 204/1/199 140/1/199 159/1/199 230/1/199
f 205/1/200 141/1/200 140/1/200 204/1/200
f 206/1/201 142/1/201 139/1/201 203/1/201
f 202/1/202 138/1/202 158/1/202 229/1/202
f 203/1/203 139/1/124 138/1/124 202/1/203
f 248/1/204 250/1/204 249/1/204 247/1/204
f 209/1/205 250/1/205 248/1/205 194/1/205
f 193/1/206 247/1/206 249/1/206 207/1/206
f 207/1/207 249/1/207 250/1/207 209/1/207
f 190/1/208 189/1/208 188/1/208 187/1/208 186/1/208 185/1/208 184/1/208 183/1/208 182/1/208
f 181/1/209 191/1/209 190/1/209 182/1/209
f 180/1/210 192/1/210 191/1/210 181/1/210
f 192/1/211 180/1/211 193/1/211
f 194/1/211 193/1/211 180/1/211
f 195/1/211 194/1/211 180/1/211
f 196/1/211 195/1/211 180/1/211
f 197/1/211 196/1/211 180/1/211
f 179/1/212 198/1/212 197/1/212 180/1/212
f 178/1/213 199/1/213 198/1/213 179/1/213
f 173/1/214 201/1/214 176/1/214 175/1/214 174/1/214
f 177/1/215 176/1/215 201/1/215 200/1/215 199/1/215 178/1/215
