# Blender 4.1.1
# www.blender.org
mtllib tour.mtl
o WhiteRook.002
v -0.000000 0.003165 -0.032058
v -0.000000 -0.002157 -0.030443
v 0.020606 0.003165 -0.024558
v 0.019568 -0.002157 -0.023321
v 0.031571 0.003165 -0.005567
v 0.029980 -0.002157 -0.005286
v 0.027763 0.003165 0.016029
v 0.026364 -0.002157 0.015221
v 0.010964 0.003165 0.030125
v 0.010412 -0.002157 0.028607
v -0.010964 0.003165 0.030125
v -0.010412 -0.002157 0.028607
v -0.027763 0.003165 0.016029
v -0.026364 -0.002157 0.015221
v -0.031571 0.003165 -0.005567
v -0.029980 -0.002157 -0.005286
v -0.020606 0.003165 -0.024558
v -0.019568 -0.002157 -0.023321
v -0.000000 0.010565 -0.026874
v 0.017274 0.010565 -0.020586
v 0.026465 0.010565 -0.004667
v 0.023273 0.010565 0.013437
v 0.009191 0.010565 0.025253
v -0.009191 0.010565 0.025253
v -0.023273 0.010565 0.013437
v -0.026465 0.010565 -0.004667
v -0.017274 0.010565 -0.020586
v -0.000000 0.014214 -0.028146
v 0.018092 0.014214 -0.021561
v 0.027718 0.014214 -0.004887
v 0.024375 0.014214 0.014073
v 0.009626 0.014214 0.026448
v -0.009626 0.014214 0.026448
v -0.024375 0.014214 0.014073
v -0.027718 0.014214 -0.004887
v -0.018092 0.014214 -0.021561
v -0.000000 0.017305 -0.024085
v 0.015482 0.017305 -0.018450
v 0.023719 0.017305 -0.004182
v 0.020858 0.017305 0.012042
v 0.008238 0.017305 0.022632
v -0.008238 0.017305 0.022632
v -0.020858 0.017305 0.012042
v -0.023719 0.017305 -0.004182
v -0.015482 0.017305 -0.018450
v -0.000000 0.017305 -0.019806
v 0.012731 0.017305 -0.015172
v 0.019505 0.017305 -0.003439
v 0.017153 0.017305 0.009903
v 0.006774 0.017305 0.018612
v -0.006774 0.017305 0.018612
v -0.017153 0.017305 0.009903
v -0.019505 0.017305 -0.003439
v -0.012731 0.017305 -0.015172
v 0.000000 0.080040 -0.016434
v 0.010563 0.080040 -0.012589
v 0.016184 0.080040 -0.002854
v 0.014232 0.080040 0.008217
v 0.005621 0.080040 0.015442
v -0.005621 0.080040 0.015442
v -0.014232 0.080040 0.008217
v -0.016184 0.080040 -0.002854
v -0.010563 0.080040 -0.012589
v 0.000000 0.086869 -0.022787
v 0.014647 0.086869 -0.017456
v 0.022441 0.086869 -0.003957
v 0.019734 0.086869 0.011394
v 0.007794 0.086869 0.021413
v -0.007794 0.086869 0.021413
v -0.019734 0.086869 0.011394
v -0.022441 0.086869 -0.003957
v -0.014647 0.086869 -0.017456
v 0.000000 0.104146 -0.022787
v 0.014647 0.104146 -0.017456
v 0.022441 0.104146 -0.003957
v 0.019734 0.104146 0.011394
v 0.007794 0.104146 0.021413
v -0.007794 0.104146 0.021413
v -0.019734 0.104146 0.011394
v -0.022441 0.104146 -0.003957
v -0.014647 0.104146 -0.017456
v 0.000000 0.104146 -0.016461
v 0.010581 0.104146 -0.012610
v 0.016211 0.104146 -0.002858
v 0.014255 0.104146 0.008230
v 0.005630 0.104146 0.015468
v -0.005630 0.104146 0.015468
v -0.014255 0.104146 0.008230
v -0.016211 0.104146 -0.002858
v -0.010581 0.104146 -0.012610
v 0.007324 0.104146 -0.020121
v 0.018544 0.104146 -0.010706
v 0.021087 0.104146 0.003718
v 0.013764 0.104146 0.016403
v 0.000000 0.104146 0.021413
v -0.013764 0.104146 0.016403
v -0.021087 0.104146 0.003718
v -0.018544 0.104146 -0.010706
v -0.007324 0.104146 -0.020121
v 0.005290 0.104146 -0.014535
v 0.013396 0.104146 -0.007734
v 0.015233 0.104146 0.002686
v 0.009943 0.104146 0.011849
v 0.000000 0.104146 0.015468
v -0.009943 0.104146 0.011849
v -0.015233 0.104146 0.002686
v -0.013396 0.104146 -0.007734
v -0.005290 0.104146 -0.014535
v 0.006712 0.104146 0.018440
v 0.016995 0.104146 0.009812
v 0.012614 0.104146 -0.015033
v 0.000000 0.104146 -0.019624
v -0.012614 0.104146 -0.015033
v -0.019326 0.104146 -0.003408
v -0.006712 0.104146 0.018440
v 0.019326 0.104146 -0.003408
v -0.016995 0.104146 0.009812
v -0.018160 0.104146 0.003202
v 0.018160 0.104146 0.003202
v -0.011853 0.104146 0.014126
v -0.006307 0.104146 -0.017328
v 0.015970 0.104146 -0.009220
v 0.000000 0.104146 0.018440
v -0.015970 0.104146 -0.009220
v 0.006307 0.104146 -0.017328
v 0.011853 0.104146 0.014126
v 0.007324 0.113830 -0.020121
v 0.014647 0.113830 -0.017456
v 0.018544 0.113830 -0.010706
v 0.022441 0.113830 -0.003957
v 0.021087 0.113830 0.003718
v 0.019734 0.113830 0.011394
v 0.013764 0.113830 0.016403
v 0.007794 0.113830 0.021413
v 0.000000 0.113830 0.021413
v -0.007794 0.113830 0.021413
v -0.013764 0.113830 0.016403
v -0.019734 0.113830 0.011394
v -0.021087 0.113830 0.003718
v -0.022441 0.113830 -0.003957
v -0.018544 0.113830 -0.010706
v -0.014647 0.113830 -0.017456
v -0.007324 0.113830 -0.020121
v 0.000000 0.113830 -0.022787
v 0.005290 0.113830 -0.014535
v 0.010581 0.113830 -0.012610
v 0.013396 0.113830 -0.007734
v 0.016211 0.113830 -0.002858
v 0.015233 0.113830 0.002686
v 0.014255 0.113830 0.008230
v 0.009943 0.113830 0.011849
v 0.005630 0.113830 0.015468
v 0.000000 0.113830 0.015468
v -0.005630 0.113830 0.015468
v -0.009943 0.113830 0.011849
v -0.014255 0.113830 0.008230
v -0.015233 0.113830 0.002686
v -0.016211 0.113830 -0.002858
v -0.013396 0.113830 -0.007734
v -0.010581 0.113830 -0.012610
v -0.005290 0.113830 -0.014535
v 0.000000 0.113830 -0.016461
v 0.006712 0.113830 0.018440
v 0.016995 0.113830 0.009812
v 0.012614 0.113830 -0.015033
v 0.000000 0.113830 -0.019624
v -0.012614 0.113830 -0.015033
v -0.019326 0.113830 -0.003408
v -0.006712 0.113830 0.018440
v 0.019326 0.113830 -0.003408
v -0.016995 0.113830 0.009812
v -0.018160 0.113830 0.003202
v 0.018160 0.113830 0.003202
v -0.011853 0.113830 0.014126
v -0.006307 0.113830 -0.017328
v 0.015970 0.113830 -0.009220
v 0.000000 0.113830 0.018440
v -0.015970 0.113830 -0.009220
v 0.006307 0.113830 -0.017328
v 0.011853 0.113830 0.014126
v 0.005656 0.074198 0.015540
v 0.014322 0.074198 0.008269
v 0.010630 0.074198 -0.012669
v -0.000000 0.074198 -0.016538
v -0.010630 0.074198 -0.012669
v -0.016286 0.074198 -0.002872
v -0.005656 0.074198 0.015540
v 0.016286 0.074198 -0.002872
v -0.014322 0.074198 0.008269
v 0.000000 0.077831 -0.018307
v 0.011767 0.077831 -0.014024
v 0.018028 0.077831 -0.003179
v 0.015854 0.077831 0.009153
v 0.006261 0.077831 0.017203
v -0.006261 0.077831 0.017203
v -0.015854 0.077831 0.009153
v -0.018028 0.077831 -0.003179
v -0.011767 0.077831 -0.014024
v 0.006301 0.076407 0.017311
v 0.011842 0.076407 -0.014112
v -0.011842 0.076407 -0.014112
v -0.006301 0.076407 0.017311
v 0.018143 0.076407 -0.003199
v -0.015954 0.076407 0.009211
v 0.015954 0.076407 0.009211
v -0.000000 0.076407 -0.018422
v -0.018143 0.076407 -0.003199
vn 0.3289 -0.2742 -0.9037
vn 0.8328 -0.2742 -0.4808
vn 0.9471 -0.2742 0.1670
vn 0.6181 -0.2742 0.7367
vn -0.0000 -0.2742 0.9617
vn -0.6181 -0.2742 0.7367
vn -0.9471 -0.2742 0.1670
vn -0.0000 -1.0000 -0.0000
vn -0.8328 -0.2742 -0.4808
vn -0.3289 -0.2742 -0.9037
vn -0.5369 0.5499 0.6398
vn -0.9359 -0.3113 0.1650
vn -0.0000 0.5499 0.8352
vn 0.5369 0.5499 0.6398
vn 0.2857 0.5499 -0.7848
vn 0.8225 0.5499 0.1450
vn 0.7233 0.5499 -0.4176
vn -0.2857 0.5499 -0.7848
vn -0.7233 0.5499 -0.4176
vn -0.8225 0.5499 0.1450
vn -0.4046 0.7770 0.4822
vn 0.6109 -0.3113 0.7280
vn 0.3250 -0.3113 -0.8930
vn -0.8230 -0.3113 -0.4752
vn -0.0000 -0.3113 0.9503
vn 0.8230 -0.3113 -0.4752
vn -0.3250 -0.3113 -0.8930
vn -0.6109 -0.3113 0.7280
vn 0.9359 -0.3113 0.1650
vn -0.0000 1.0000 -0.0000
vn 0.6199 0.7770 0.1093
vn -0.6199 0.7770 0.1093
vn 0.4046 0.7770 0.4822
vn 0.2153 0.7770 -0.5915
vn -0.5451 0.7770 -0.3147
vn -0.0000 0.7770 0.6295
vn 0.5451 0.7770 -0.3147
vn -0.2153 0.7770 -0.5915
vn -0.6774 0.6230 -0.3911
vn 0.7414 -0.6582 0.1307
vn -0.6757 -0.6254 -0.3901
vn -0.7703 0.6230 0.1358
vn -0.0000 -0.6255 0.7803
vn -0.5028 0.6230 0.5992
vn 0.6757 -0.6254 -0.3901
vn -0.0000 0.6230 0.7822
vn -0.2669 -0.6255 -0.7332
vn 0.5028 0.6230 0.5992
vn 0.8660 -0.0000 -0.5000
vn -0.7414 -0.6582 0.1307
vn 0.4839 -0.6582 0.5767
vn 0.2575 -0.6582 -0.7074
vn -0.6520 -0.6582 -0.3764
vn -0.0000 -0.6582 0.7528
vn 0.6520 -0.6582 -0.3764
vn -0.2575 -0.6582 -0.7074
vn -0.4839 -0.6582 0.5767
vn -0.5000 -0.0000 -0.8660
vn -0.3420 -0.0000 -0.9397
vn -0.6428 -0.0000 0.7660
vn 0.9848 -0.0000 0.1736
vn 0.9848 -0.0000 0.1737
vn -0.9848 -0.0000 0.1736
vn 0.6428 -0.0000 0.7660
vn 0.3420 -0.0000 -0.9397
vn -0.8660 -0.0000 -0.5000
vn -0.0000 -0.0000 1.0000
vn 0.3420 -0.0000 0.9397
vn 0.8660 -0.0000 0.5000
vn 0.9848 -0.0000 -0.1737
vn -0.9397 -0.0000 0.3420
vn 0.6428 -0.0000 -0.7660
vn -0.0000 -0.0000 -1.0000
vn -0.6428 -0.0000 -0.7660
vn -0.9848 -0.0000 -0.1736
vn 0.7660 -0.0000 0.6428
vn -0.8660 -0.0000 0.5000
vn -0.3420 -0.0000 0.9397
vn 0.7660 -0.0000 -0.6428
vn 0.1736 -0.0000 -0.9848
vn -0.5000 -0.0000 0.8660
vn 1.0000 -0.0000 -0.0000
vn -0.9397 -0.0000 -0.3420
vn 0.1736 -0.0000 0.9848
vn -0.9834 0.0539 0.1734
vn 0.9834 0.0539 0.1734
vn -0.6419 0.0539 0.7649
vn -0.3415 0.0539 -0.9383
vn 0.8648 0.0539 -0.4993
vn -0.0000 0.0539 0.9985
vn -0.8648 0.0539 -0.4993
vn 0.3415 0.0539 -0.9383
vn 0.6419 0.0539 0.7649
vn 0.6409 0.0763 0.7638
vn 0.3410 0.0763 -0.9370
vn -0.8635 0.0763 -0.4985
vn -0.0000 0.0763 0.9971
vn 0.8635 0.0763 -0.4985
vn -0.3410 0.0763 -0.9370
vn -0.6409 0.0763 0.7638
vn 0.9819 0.0763 0.1731
vn -0.9819 0.0763 0.1731
vn 0.2669 -0.6255 -0.7332
vn 0.2675 0.6230 -0.7350
vn -0.7684 -0.6254 0.1355
vn -0.2675 0.6230 -0.7350
vn 0.5015 -0.6255 0.5977
vn 0.6774 0.6230 -0.3911
vn 0.7684 -0.6255 0.1355
vn 0.7703 0.6230 0.1358
vn -0.5015 -0.6254 0.5977
vt 0.069394 0.028533
vt 0.069394 0.028533
s 1
usemtl Material.002
f 1/1/1 3/1/1 4/1/1 2/1/1
f 3/1/2 5/1/2 6/1/2 4/1/2
f 5/1/3 7/1/3 8/1/3 6/1/3
f 7/1/4 9/1/4 10/1/4 8/1/4
f 9/1/5 11/1/5 12/1/5 10/1/5
f 11/1/6 13/1/6 14/1/6 12/1/6
f 13/1/7 15/1/7 16/1/7 14/1/7
f 4/1/8 6/1/8 8/1/8 10/1/8 12/2/8 14/1/8 16/1/8 18/1/8 2/1/8
f 15/1/9 17/1/9 18/1/9 16/1/9
f 17/1/10 1/1/10 2/1/10 18/1/10
f 11/1/11 24/1/11 25/1/11 13/1/11
f 25/1/12 34/1/12 35/1/12 26/1/12
f 9/1/13 23/1/13 24/1/13 11/1/13
f 7/1/14 22/1/14 23/1/14 9/1/14
f 1/1/15 19/1/15 20/1/15 3/1/15
f 5/1/16 21/1/16 22/1/16 7/1/16
f 3/1/17 20/1/17 21/1/17 5/1/17
f 17/1/18 27/1/18 19/1/18 1/1/18
f 15/1/19 26/1/19 27/1/19 17/1/19
f 13/1/20 25/1/20 26/1/20 15/1/20
f 33/1/21 42/1/21 43/1/21 34/1/21
f 22/1/22 31/1/22 32/1/22 23/1/22
f 19/1/23 28/1/23 29/1/23 20/1/23
f 26/1/24 35/1/24 36/1/24 27/1/24
f 23/1/25 32/1/25 33/1/25 24/1/25
f 20/1/26 29/1/26 30/1/26 21/1/26
f 27/1/27 36/1/27 28/1/27 19/1/27
f 24/1/28 33/1/28 34/1/28 25/1/28
f 21/1/29 30/1/29 31/1/29 22/1/29
f 41/1/30 50/1/30 51/1/30 42/1/30
f 30/1/31 39/1/31 40/1/31 31/1/31
f 34/1/32 43/1/32 44/1/32 35/1/32
f 31/1/33 40/1/33 41/1/33 32/1/33
f 28/1/34 37/1/34 38/1/34 29/1/34
f 35/1/35 44/1/35 45/1/35 36/1/35
f 32/1/36 41/1/36 42/1/36 33/1/36
f 29/1/37 38/1/37 39/1/37 30/1/37
f 36/1/38 45/1/38 37/1/38 28/1/38
f 63/1/39 198/1/39 197/1/39 62/1/39
f 38/1/30 47/1/30 48/1/30 39/1/30
f 45/1/30 54/1/30 46/1/30 37/1/30
f 42/1/30 51/1/30 52/1/30 43/1/30
f 39/1/30 48/1/30 49/1/30 40/1/30
f 43/1/30 52/1/30 53/1/30 44/1/30
f 40/1/30 49/1/30 50/1/30 41/1/30
f 37/1/30 46/1/30 47/1/30 38/1/30
f 44/1/30 53/1/30 54/1/30 45/1/30
f 57/1/40 66/1/40 67/1/40 58/1/40
f 186/1/41 207/1/41 201/1/41 185/1/41
f 62/1/42 197/1/42 196/1/42 61/1/42
f 181/1/43 199/1/43 202/1/43 187/1/43
f 61/1/44 196/1/44 195/1/44 60/1/44
f 183/1/45 200/1/45 203/1/45 188/1/45
f 60/1/46 195/1/46 194/1/46 59/1/46
f 185/1/47 201/1/47 206/1/47 184/1/47
f 59/1/48 194/1/48 193/1/48 58/1/48
f 65/1/49 74/1/49 92/1/49 75/1/49 66/1/49
f 61/1/50 70/1/50 71/1/50 62/1/50
f 58/1/51 67/1/51 68/1/51 59/1/51
f 55/1/52 64/1/52 65/1/52 56/1/52
f 62/1/53 71/1/53 72/1/53 63/1/53
f 59/1/54 68/1/54 69/1/54 60/1/54
f 56/1/55 65/1/55 66/1/55 57/1/55
f 63/1/56 72/1/56 64/1/56 55/1/56
f 60/1/57 69/1/57 70/1/57 61/1/57
f 101/1/58 147/1/58 176/1/58 122/1/58
f 72/1/59 81/1/59 99/1/59 73/1/59 64/1/59
f 69/1/60 78/1/60 96/1/60 79/1/60 70/1/60
f 66/1/61 75/1/61 93/1/62 76/1/62 67/1/61
f 70/1/63 79/1/63 97/1/63 80/1/63 71/1/63
f 67/1/64 76/1/64 94/1/64 77/1/64 68/1/64
f 64/1/65 73/1/65 91/1/65 74/1/65 65/1/65
f 71/1/66 80/1/66 98/2/66 81/1/66 72/1/66
f 68/1/67 77/1/67 95/1/67 78/1/67 69/1/67
f 82/1/30 108/1/30 90/1/30 107/1/30 89/1/30 106/1/30 88/1/30 105/1/30 87/1/30 104/1/30 86/1/30 103/1/30 85/1/30 102/1/30 84/1/30 101/1/30 83/1/30 100/1/30
f 91/1/65 127/1/65 128/1/65 74/1/65
f 82/1/68 162/1/68 161/1/68 108/1/68
f 90/1/69 160/1/69 159/1/69 107/1/69
f 89/1/70 158/1/70 157/1/70 106/1/70
f 121/1/71 175/1/71 143/1/71 99/1/71
f 88/1/72 156/1/72 155/1/72 105/1/72
f 108/1/71 161/1/71 175/1/71 121/1/71
f 87/1/73 154/1/73 153/1/73 104/1/73
f 117/1/30 88/1/30 106/1/30 118/1/30
f 79/1/30 117/1/30 118/1/30 97/1/30
f 86/1/74 152/1/74 151/1/74 103/1/74
f 116/1/30 84/1/30 102/1/30 119/1/30
f 75/1/30 116/1/30 119/1/30 93/1/30
f 85/1/75 150/1/75 149/1/75 102/1/75
f 115/1/30 87/1/30 105/1/30 120/1/30
f 78/1/30 115/1/30 120/1/30 96/1/30
f 120/1/76 174/1/76 137/1/76 96/1/76
f 113/1/30 90/1/30 108/1/30 121/1/30
f 81/1/30 113/1/30 121/1/30 99/1/30
f 84/1/77 148/1/77 147/1/77 101/1/77
f 111/1/30 83/1/30 101/1/30 122/1/30
f 74/1/30 111/1/30 122/1/30 92/1/30
f 105/1/76 155/1/76 174/1/76 120/1/76
f 109/1/30 86/1/30 104/1/30 123/1/30
f 77/1/30 109/1/30 123/1/30 95/1/30
f 83/1/78 146/1/78 145/1/78 100/1/78
f 114/1/30 89/1/30 107/2/30 124/2/30
f 80/1/30 114/1/30 124/2/30 98/2/30
f 126/1/79 180/1/79 133/1/79 94/1/79
f 112/1/30 82/1/30 100/1/30 125/1/30
f 73/1/30 112/1/30 125/1/30 91/1/30
f 103/1/79 151/1/79 180/1/79 126/1/79
f 110/1/30 85/1/30 103/1/30 126/1/30
f 76/1/30 110/1/30 126/1/30 94/1/30
f 119/1/80 173/1/80 131/1/80 93/1/80
f 180/1/30 151/1/30 152/1/30 163/1/30
f 179/1/30 145/1/30 146/1/30 165/1/30
f 178/2/30 159/2/30 160/1/30 167/1/30
f 177/1/30 153/1/30 154/1/30 169/1/30
f 176/1/30 147/1/30 148/1/30 170/1/30
f 175/1/30 161/1/30 162/1/30 166/1/30
f 174/1/30 155/1/30 156/1/30 171/1/30
f 173/1/30 149/1/30 150/1/30 164/1/30
f 172/1/30 157/1/30 158/1/30 168/1/30
f 139/1/30 172/1/30 168/1/30 140/1/30
f 131/1/30 173/1/30 164/1/30 132/1/30
f 137/1/30 174/1/30 171/1/30 138/1/30
f 143/1/30 175/1/30 166/1/30 144/1/30
f 129/1/30 176/1/30 170/1/30 130/1/30
f 135/1/30 177/1/30 169/1/30 136/1/30
f 141/2/30 178/2/30 167/1/30 142/1/30
f 127/1/30 179/1/30 165/1/30 128/1/30
f 133/1/30 180/1/30 163/1/30 134/1/30
f 109/1/71 163/1/71 152/1/71 86/1/71
f 92/1/49 129/1/49 130/1/49 75/1/49
f 122/1/58 176/1/58 129/1/58 92/1/58
f 77/1/71 134/1/71 163/1/71 109/1/71
f 76/1/81 132/1/81 164/1/81 110/1/81
f 93/1/62 131/1/62 132/1/62 76/1/62
f 110/1/81 164/1/81 150/1/81 85/1/81
f 111/1/76 165/1/76 146/1/76 83/1/76
f 94/1/64 133/1/64 134/1/64 77/1/64
f 74/1/76 128/1/76 165/1/76 111/1/76
f 73/1/82 144/1/82 166/1/82 112/1/82
f 95/1/67 135/1/67 136/1/67 78/1/67
f 104/1/82 153/1/82 177/1/82 123/1/82
f 112/1/82 166/1/82 162/1/82 82/1/82
f 113/1/79 167/1/79 160/1/79 90/1/79
f 96/1/60 137/1/60 138/1/60 79/1/60
f 123/1/82 177/1/82 135/1/82 95/1/82
f 81/1/79 142/1/79 167/1/79 113/1/79
f 80/1/80 140/1/80 168/1/80 114/1/80
f 97/1/63 139/1/63 140/1/63 80/1/63
f 114/1/80 168/1/80 158/1/80 89/1/80
f 115/1/83 169/1/83 154/1/83 87/1/83
f 98/2/66 141/2/66 142/1/66 81/1/66
f 78/1/83 136/1/83 169/1/83 115/1/83
f 116/1/84 170/1/84 148/1/84 84/1/84
f 99/1/59 143/1/59 144/1/59 73/1/59
f 107/2/81 159/2/81 178/2/81 124/2/81
f 75/1/84 130/1/84 170/1/84 116/1/84
f 117/1/58 171/1/58 156/1/58 88/1/58
f 124/2/81 178/2/81 141/2/81 98/2/81
f 79/1/58 138/1/58 171/1/58 117/1/58
f 106/1/84 157/1/84 172/1/84 118/1/84
f 118/1/84 172/1/84 139/1/84 97/1/84
f 100/1/83 145/1/83 179/1/83 125/1/83
f 125/1/83 179/1/83 127/1/83 91/1/83
f 102/1/80 149/1/80 173/1/80 119/1/80
f 52/1/85 189/1/85 186/1/85 53/1/85
f 48/1/86 188/1/86 182/1/86 49/1/86
f 51/1/87 187/1/87 189/1/87 52/1/87
f 54/1/88 185/1/88 184/1/88 46/1/88
f 47/1/89 183/1/89 188/1/89 48/1/89
f 50/1/90 181/1/90 187/1/90 51/1/90
f 53/1/91 186/1/91 185/1/91 54/1/91
f 46/1/92 184/1/92 183/1/92 47/1/92
f 49/1/93 182/1/93 181/1/93 50/1/93
f 205/1/94 193/1/94 194/1/94 199/1/94
f 206/1/95 190/1/95 191/1/95 200/1/95
f 207/1/96 197/1/96 198/1/96 201/1/96
f 199/1/97 194/1/97 195/1/97 202/1/97
f 200/1/98 191/1/98 192/1/98 203/1/98
f 201/1/99 198/1/99 190/1/99 206/1/99
f 202/1/100 195/1/100 196/1/100 204/1/100
f 203/1/101 192/1/101 193/1/101 205/1/101
f 204/1/102 196/1/102 197/1/102 207/1/102
f 184/1/103 206/1/103 200/1/103 183/1/103
f 56/1/104 191/1/104 190/1/104 55/1/104
f 189/1/105 204/1/105 207/1/105 186/1/105
f 55/1/106 190/1/106 198/1/106 63/1/106
f 182/1/107 205/1/107 199/1/107 181/1/107
f 57/1/108 192/1/108 191/1/108 56/1/108
f 188/1/109 203/1/109 205/1/109 182/1/109
f 58/1/110 193/1/110 192/1/110 57/1/110
f 187/1/111 202/1/111 204/1/111 189/1/111
